{"title":"Takkari Donga 2004 Telugu 1CD HQ DVDRiP X264 AAC","uid":8161691,"size":1296914354,"categoryP":"video","categoryS":"movies","magnet":"?xt=urn:btih:84d50b96b28bb5148b0da8e6f3fc1bc20093a0e2&amp;dn=Takkari+Donga+2004+Telugu+1CD+HQ+DVDRiP+X264+AAC&amp;tr=udp%3A%2F%2Ftracker.openbittorrent.com%3A80&amp;tr=udp%3A%2F%2Fopen.demonii.com%3A1337&amp;tr=udp%3A%2F%2Ftracker.coppersurfer.tk%3A6969&amp;tr=udp%3A%2F%2Fexodus.desync.com%3A6969","seeders":2,"leechers":2,"uploader":"vish3654","files":1,"time":1361263477,"description":"General\nFormat                                   : Flash Video\nFile size                                : 1.21 GiB\nDuration                                 : 2h 45mn\nOverall bit rate                         : 1 046 Kbps\nhttphostheader                           :\n\nVideo\nFormat                                   : AVC\nFormat/Info                              : Advanced Video Codec\nFormat profile                           : &lt;a class=&quot;__cf_email__&quot; href=&quot;/cdn-cgi/l/email-protection&quot; data-cfemail=&quot;1d507c74735d512e332d&quot;&gt;[email&amp;#160;protected]&lt;/a&gt;&lt;script cf-hash='f9e31' type=&quot;text/javascript&quot;&gt;\n/* &lt;![CDATA[ */!function(){try{var t=&quot;currentScript&quot;in document?document.currentScript:function(){for(var t=document.getElementsByTagName(&quot;script&quot;),e=t.length;e--;)if(t[e].getAttribute(&quot;cf-hash&quot;))return t[e]}();if(t&amp;&amp;t.previousSibling){var e,r,n,i,c=t.previousSibling,a=c.getAttribute(&quot;data-cfemail&quot;);if(a){for(e=&quot;&quot;,r=parseInt(a.substr(0,2),16),n=2;a.length-n;n+=2)i=parseInt(a.substr(n,2),16)^r,e+=String.fromCharCode(i);e=document.createTextNode(e),c.parentNode.replaceChild(e,c)}}}catch(u){}}();/* ]]&gt; */&lt;/script&gt;\nFormat settings, CABAC                   : Yes\nFormat settings, ReFrames                : 3 frames\nFormat settings, GOP                     : M=1, N=25\nCodec ID                                 : 7\nDuration                                 : 2h 45mn\nBit rate                                 : 941 Kbps\nWidth                                    : 854 pixels\nHeight                                   : 366 pixels\nDisplay aspect ratio                     : 2.35:1\nFrame rate mode                          : Constant\nFrame rate                               : 25.000 fps\nColor space                              : YUV\nChroma subsampling                       : 4:2:0\nBit depth                                : 8 bits\nScan type                                : Progressive\nBits/(Pixel*Frame)                       : 0.120\nStream size                              : 1.09 GiB (90%)\n\nAudio\nFormat                                   : AAC\nFormat/Info                              : Advanced Audio Codec\nFormat profile                           : LC\nCodec ID                                 : 10\nDuration                                 : 2h 45mn\nBit rate                                 : 96.7 Kbps\nChannel(s)                               : 2 channels\nChannel positions                        : Front: L R\nSampling rate                            : 44.1 KHz\nCompression mode                         : Lossy\nStream size                              : 114 MiB (9%)\n","torrent":{"xt":"urn:btih:84d50b96b28bb5148b0da8e6f3fc1bc20093a0e2","amp;dn":"Takkari+Donga+2004+Telugu+1CD+HQ+DVDRiP+X264+AAC","amp;tr":["udp%3A%2F%2Ftracker.openbittorrent.com%3A80","udp%3A%2F%2Fopen.demonii.com%3A1337","udp%3A%2F%2Ftracker.coppersurfer.tk%3A6969","udp%3A%2F%2Fexodus.desync.com%3A6969"],"infoHash":"84d50b96b28bb5148b0da8e6f3fc1bc20093a0e2","infoHashBuffer":{"type":"Buffer","data":[132,213,11,150,178,139,181,20,139,13,168,230,243,252,27,194,0,147,160,226]},"announce":[],"urlList":[]}}